# Blender v2.93.0 OBJ File: 'grass.blend'
# www.blender.org
mtllib grassModel.mtl
o grass-g781ea2e7e_640
v -3.003361 -0.292483 -160.831192
v -1.003361 -0.292483 -160.831192
v -3.003361 0.702344 -160.729599
v -1.003361 0.702344 -160.729599
vt 0.000000 0.000000
vt 1.000000 0.000000
vt 1.000000 1.000000
vt 0.000000 1.000000
vn 0.0000 -0.1016 0.9948
usemtl grass-g781ea2e7e_640
s off
f 1/1/1 2/2/1 4/3/1 3/4/1
o grass-g781ea2e7e_640.001
v -0.024938 -0.292483 -162.538467
v 1.673600 -0.292483 -161.482544
v -0.078568 0.702344 -162.452209
v 1.619970 0.702344 -161.396286
vt 0.000000 0.000000
vt 1.000000 0.000000
vt 1.000000 1.000000
vt 0.000000 1.000000
vn -0.5252 -0.1016 0.8449
usemtl grass-g781ea2e7e_640
s off
f 5/5/2 6/6/2 8/7/2 7/8/2
