# Blender v2.93.0 OBJ File: 'ladoD.blend'
# www.blender.org
mtllib ladoD.mtl
o Plano.006_Plano.022
v 29.599352 15.072357 -137.201080
v 29.599352 -0.127643 -137.201080
v 29.599360 15.072357 -47.201073
v 29.599360 -0.127643 -47.201073
vt -0.004099 0.595696
vt 0.004132 0.382389
vt 1.004099 0.384145
vt 0.995868 0.597452
vn -1.0000 0.0000 0.0000
usemtl Material.019
s off
f 1/1/1 2/2/1 4/3/1 3/4/1
o Plano.007_Plano.023
v 44.800575 15.048986 -137.201080
v 29.600576 15.048988 -137.201080
v 44.800575 15.048979 -47.201073
v 29.600576 15.048981 -47.201073
vt -0.004099 0.595696
vt 0.004132 0.382389
vt 1.004099 0.384145
vt 0.995868 0.597452
vn 0.0000 1.0000 0.0000
usemtl Material.020
s off
f 5/5/2 6/6/2 8/7/2 7/8/2
o Plano.010_Plano.026
v 44.823551 15.072357 -47.201073
v 44.823551 -0.127643 -47.201073
v 44.823551 15.072357 -137.201080
v 44.823551 -0.127643 -137.201080
vt -0.004099 0.595696
vt 0.004132 0.382389
vt 1.004099 0.384145
vt 0.995868 0.597452
vn 1.0000 0.0000 0.0000
usemtl Material.023
s off
f 9/9/3 10/10/3 12/11/3 11/12/3
o Plano.015_Plano.029
v 44.910137 -0.181026 -137.154205
v 29.664618 -0.181026 -137.154205
v 44.910137 15.018973 -137.154205
v 29.664618 15.018973 -137.154205
vt 0.000000 0.231506
vt 1.000000 0.231506
vt 1.000000 0.768494
vt 0.000000 0.768494
vn 0.0000 0.0000 -1.0000
usemtl Material.024
s off
f 13/13/4 14/14/4 16/15/4 15/16/4
o Plano.016_Plano.030
v 29.664618 -0.181026 -47.275101
v 44.910137 -0.181026 -47.275101
v 29.664618 15.018973 -47.275101
v 44.910137 15.018973 -47.275101
vt 0.000000 0.231506
vt 1.000000 0.231506
vt 1.000000 0.768494
vt 0.000000 0.768494
vn 0.0000 0.0000 1.0000
usemtl Material.024
s off
f 17/17/5 18/18/5 20/19/5 19/20/5
