# Blender v2.93.0 OBJ File: 'ladoE.blend'
# www.blender.org
mtllib ladoE.mtl
o Plano_Plano.021
v 92.700554 13.659786 -146.715256
v 92.700546 -1.540213 -146.715256
v 92.700562 13.659786 -56.715256
v 92.700554 -1.540213 -56.715256
vt 0.004257 0.618258
vt -0.001359 0.383103
vt 0.995743 0.381742
vt 1.001359 0.616897
vn -1.0000 0.0000 0.0000
usemtl Material.018
s off
f 1/1/1 2/2/1 4/3/1 3/4/1
o Plano.008_Plano.024
v 108.003044 13.533634 -146.692078
v 92.803047 13.533636 -146.692078
v 108.003044 13.533627 -56.692070
v 92.803047 13.533628 -56.692070
vt -0.004099 0.595696
vt 0.004132 0.382389
vt 1.004099 0.384145
vt 0.995868 0.597452
vn 0.0000 1.0000 0.0000
usemtl Material.021
s off
f 5/5/2 6/6/2 8/7/2 7/8/2
o Plano.009_Plano.025
v 107.938438 13.659786 -56.715256
v 107.938438 -1.540213 -56.715256
v 107.938438 13.659786 -146.715256
v 107.938438 -1.540213 -146.715256
vt 0.004257 0.627885
vt -0.001360 0.373586
vt 0.995743 0.372115
vt 1.001359 0.626414
vn 1.0000 0.0000 0.0000
usemtl Material.022
s off
f 9/9/3 10/10/3 12/11/3 11/12/3
o Plano.011_Plano.027
v 92.720802 -1.593596 -56.751610
v 107.966316 -1.593596 -56.751610
v 92.720802 13.606403 -56.751610
v 107.966316 13.606403 -56.751610
vt 0.000000 0.231506
vt 1.000000 0.231506
vt 1.000000 0.768494
vt 0.000000 0.768494
vn 0.0000 0.0000 1.0000
usemtl Material.024
s off
f 13/13/4 14/14/4 16/15/4 15/16/4
o Plano.012_Plano.028
v 107.966255 -1.593596 -146.626205
v 92.720863 -1.593596 -146.562607
v 107.966255 13.606403 -146.626205
v 92.720863 13.606403 -146.562607
vt 0.000000 0.231506
vt 1.000000 0.231506
vt 1.000000 0.768494
vt 0.000000 0.768494
vn -0.0042 0.0000 -1.0000
usemtl Material.024
s off
f 17/17/5 18/18/5 20/19/5 19/20/5
